<svg width="70" height="70" viewBox="0 0 70 70" fill="none" xmlns="http://www.w3.org/2000/svg">
<circle cx="35" cy="35" r="35" fill="currentColor"/>
<path d="M35 20C34.1768 20 33.591 20.5717 33.591 21.3976V42.3133L33.7493 47.0461L34.6359 46.7283L28.9683 40.4871L25.3588 36.9296C25.1214 36.6754 24.7414 36.5484 24.3615 36.5484C23.5699 36.5484 23 37.1519 23 37.9301C23 38.3113 23.1425 38.6447 23.4433 38.9624L33.9393 49.5235C34.2401 49.8411 34.6042 50 35 50C35.3958 50 35.7599 49.8411 36.0607 49.5235L46.5725 38.9624C46.8734 38.6447 47 38.3113 47 37.9301C47 37.1519 46.43 36.5484 45.6384 36.5484C45.2586 36.5484 44.8945 36.6754 44.6411 36.9296L41.0316 40.4871L35.3483 46.7283L36.2507 47.0461L36.409 42.3133V21.3976C36.409 20.5717 35.8232 20 35 20Z" fill="currentColor"/>
</svg>
