<svg width="32" height="32" viewBox="0 0 32 32" fill="none" xmlns="http://www.w3.org/2000/svg">
<g clip-path="url(#clip0_45_100)">
<path d="M16.0003 31.0488C16.6771 31.0388 17.246 30.4698 17.2462 29.8029L17.2501 17.25L29.803 17.2461C30.47 17.2458 31.0585 16.6769 31.049 16.0001C31.0393 15.3235 30.4805 14.7647 29.8137 14.7649L17.2509 14.759L17.2549 2.20604C17.2551 1.5392 16.6963 0.960728 16.0196 0.97075C15.3331 0.970968 14.7641 1.53994 14.7737 2.21669L14.7698 14.7696L2.21682 14.7735C1.54014 14.7639 0.951546 15.3329 0.970945 16.0194C0.98054 16.6961 1.53937 17.2549 2.20624 17.2547L14.7592 17.2508L14.7651 29.8135C14.7648 30.4804 15.3237 31.0588 16.0003 31.0488Z" fill="currentColor"/>
</g>
<defs>
<clipPath id="clip0_45_100">
<rect width="22" height="22" fill="white" transform="translate(0.443848 16) rotate(-45)"/>
</clipPath>
</defs>
</svg>
